<?xml version="1.0" standalone="no"?>
<!DOCTYPE svg PUBLIC "-//W3C//DTD SVG 20010904//EN"
 "http://www.w3.org/TR/2001/REC-SVG-20010904/DTD/svg10.dtd">
<svg version="1.0" xmlns="http://www.w3.org/2000/svg"
 width="70.000000pt" height="70.000000pt" viewBox="0 0 70.000000 70.000000"
 preserveAspectRatio="xMidYMid meet">
<metadata>
Created by potrace 1.11, written by Peter Selinger 2001-2013
</metadata>
<g transform="translate(0.000000,70.000000) scale(0.100000,-0.100000)"
fill="#000000" stroke="none">
<path d="M253 686 c-103 -33 -176 -98 -222 -196 -21 -45 -26 -70 -26 -140 0
-76 3 -92 33 -152 38 -77 92 -130 171 -166 46 -22 71 -27 141 -27 71 0 94 4
142 27 73 34 142 104 176 176 22 47 27 71 27 142 0 71 -4 94 -26 141 -58 124
-167 198 -301 205 -45 2 -89 -2 -115 -10z"/>
</g>
</svg>
